# xmcd
#
# Track frame offsets:
#	150
#	19147
#	33557
#	51365
#	65850
#	77650
#	93715
#	108062
#	125580
#	144402
#	161842
#	176925
#	196350
#	211692
#	229960
#	242610
#	257875
#
# Disc length: 3645 seconds
#
# Revision: 1
# Processed by: cddbd v1.5.1PL2 Copyright (c) Steve Scherf et al.
# Submitted via: audiograbber 1.83.01
#
DISCID=f90e3b11
DTITLE=Various Artist - Music City Now Vol. 2
DYEAR=1900
DGENRE=Country
TTITLE0=Shania Twain - Any man of mine
TTITLE1=Brother Phelps - Aynway the wind blows
TTITLE2=The Tractors - Baby likes to rock it
TTITLE3=Tanya Tucker - Between the two of them
TTITLE4=Kenny Chesney - Fall in love
TTITLE5=Randy Travis - Forever and ever, Amen
TTITLE6=Mark Chesnutt - Gonna get a life
TTITLE7=John Michael Montgomery - I can love you like that
TTITLE8=Russ Tuff - I cry
TTITLE9=Sawyer Brown - I don't believe in goodbye
TTITLE10=Wade Hayes - I'm still dancin' with you
TTITLE11=James House - Little by little
TTITLE12=Clay Walker - My heart will never know
TTITLE13=John Berry - Standing on the edge of goodbye
TTITLE14=Clint Black - Summer's comin'
TTITLE15=Trisha Yearrwood - Thinkin' about you
TTITLE16=Clinton Gregory - You din't miss a thing
EXTD=
EXTT0=
EXTT1=
EXTT2=
EXTT3=
EXTT4=
EXTT5=
EXTT6=
EXTT7=
EXTT8=
EXTT9=
EXTT10=
EXTT11=
EXTT12=
EXTT13=
EXTT14=
EXTT15=
EXTT16=
PLAYORDER=
